<svg xmlns="http://www.w3.org/2000/svg" xmlns:xlink="http://www.w3.org/1999/xlink" version="1.1" class="marks" width="510" height="474" viewBox="0 0 510 474" style="background-color: white;"><g fill="none" stroke-miterlimit="10" transform="translate(53,27)"><g class="mark-group role-frame root" role="graphics-object" aria-roledescription="group mark container"><g transform="translate(0,0)"><path class="background" aria-hidden="true" d="M0.5,0.5h450v410h-450Z" fill="transparent" stroke="#ddd"></path><g><g class="mark-group role-axis" aria-hidden="true"><g transform="translate(0.5,410.5)"><path class="background" aria-hidden="true" d="M0,0h0v0h0Z" pointer-events="none"></path><g><g class="mark-rule role-axis-grid" pointer-events="none"><line transform="translate(26,-410)" x2="0" y2="410" stroke="#ddd" stroke-width="1" opacity="1"></line><line transform="translate(79,-410)" x2="0" y2="410" stroke="#ddd" stroke-width="1" opacity="1"></line><line transform="translate(132,-410)" x2="0" y2="410" stroke="#ddd" stroke-width="1" opacity="1"></line><line transform="translate(185,-410)" x2="0" y2="410" stroke="#ddd" stroke-width="1" opacity="1"></line><line transform="translate(238,-410)" x2="0" y2="410" stroke="#ddd" stroke-width="1" opacity="1"></line><line transform="translate(291,-410)" x2="0" y2="410" stroke="#ddd" stroke-width="1" opacity="1"></line><line transform="translate(344,-410)" x2="0" y2="410" stroke="#ddd" stroke-width="1" opacity="1"></line><line transform="translate(397,-410)" x2="0" y2="410" stroke="#ddd" stroke-width="1" opacity="1"></line><line transform="translate(450,-410)" x2="0" y2="410" stroke="#ddd" stroke-width="1" opacity="1"></line></g></g><path class="foreground" aria-hidden="true" d="" pointer-events="none" display="none"></path></g></g><g class="mark-group role-axis" aria-hidden="true"><g transform="translate(0.5,0.5)"><path class="background" aria-hidden="true" d="M0,0h0v0h0Z" pointer-events="none"></path><g><g class="mark-rule role-axis-grid" pointer-events="none"><line transform="translate(0,410)" x2="450" y2="0" stroke="#ddd" stroke-width="1" opacity="1"></line><line transform="translate(0,381)" x2="450" y2="0" stroke="#ddd" stroke-width="1" opacity="1"></line><line transform="translate(0,351)" x2="450" y2="0" stroke="#ddd" stroke-width="1" opacity="1"></line><line transform="translate(0,322)" x2="450" y2="0" stroke="#ddd" stroke-width="1" opacity="1"></line><line transform="translate(0,293)" x2="450" y2="0" stroke="#ddd" stroke-width="1" opacity="1"></line><line transform="translate(0,264)" x2="450" y2="0" stroke="#ddd" stroke-width="1" opacity="1"></line><line transform="translate(0,234)" x2="450" y2="0" stroke="#ddd" stroke-width="1" opacity="1"></line><line transform="translate(0,205)" x2="450" y2="0" stroke="#ddd" stroke-width="1" opacity="1"></line><line transform="translate(0,176)" x2="450" y2="0" stroke="#ddd" stroke-width="1" opacity="1"></line><line transform="translate(0,146)" x2="450" y2="0" stroke="#ddd" stroke-width="1" opacity="1"></line><line transform="translate(0,117)" x2="450" y2="0" stroke="#ddd" stroke-width="1" opacity="1"></line><line transform="translate(0,88)" x2="450" y2="0" stroke="#ddd" stroke-width="1" opacity="1"></line><line transform="translate(0,59)" x2="450" y2="0" stroke="#ddd" stroke-width="1" opacity="1"></line><line transform="translate(0,29)" x2="450" y2="0" stroke="#ddd" stroke-width="1" opacity="1"></line><line transform="translate(0,0)" x2="450" y2="0" stroke="#ddd" stroke-width="1" opacity="1"></line></g></g><path class="foreground" aria-hidden="true" d="" pointer-events="none" display="none"></path></g></g><g class="mark-group role-axis" role="graphics-symbol" aria-roledescription="axis" aria-label="X-axis titled 'time (year)' for a utc scale with values from 2015 to 2100"><g transform="translate(0.5,410.5)"><path class="background" aria-hidden="true" d="M0,0h0v0h0Z" pointer-events="none"></path><g><g class="mark-rule role-axis-tick" pointer-events="none"><line transform="translate(26,0)" x2="0" y2="5" stroke="#888" stroke-width="1" opacity="1"></line><line transform="translate(79,0)" x2="0" y2="5" stroke="#888" stroke-width="1" opacity="1"></line><line transform="translate(132,0)" x2="0" y2="5" stroke="#888" stroke-width="1" opacity="1"></line><line transform="translate(185,0)" x2="0" y2="5" stroke="#888" stroke-width="1" opacity="1"></line><line transform="translate(238,0)" x2="0" y2="5" stroke="#888" stroke-width="1" opacity="1"></line><line transform="translate(291,0)" x2="0" y2="5" stroke="#888" stroke-width="1" opacity="1"></line><line transform="translate(344,0)" x2="0" y2="5" stroke="#888" stroke-width="1" opacity="1"></line><line transform="translate(397,0)" x2="0" y2="5" stroke="#888" stroke-width="1" opacity="1"></line><line transform="translate(450,0)" x2="0" y2="5" stroke="#888" stroke-width="1" opacity="1"></line></g><g class="mark-text role-axis-label" pointer-events="none"><text text-anchor="middle" transform="translate(26.46717773626232,15)" font-family="sans-serif" font-size="10px" fill="#000" opacity="1">2020</text><text text-anchor="middle" transform="translate(79.4160278296721,15)" font-family="sans-serif" font-size="10px" fill="#000" opacity="1">2030</text><text text-anchor="middle" transform="translate(132.35038330219672,15)" font-family="sans-serif" font-size="10px" fill="#000" opacity="1">2040</text><text text-anchor="middle" transform="translate(185.2992333956065,15)" font-family="sans-serif" font-size="10px" fill="#000" opacity="1">2050</text><text text-anchor="middle" transform="translate(238.23358886813116,15)" font-family="sans-serif" font-size="10px" fill="#000" opacity="1">2060</text><text text-anchor="middle" transform="translate(291.1824389615409,15)" font-family="sans-serif" font-size="10px" fill="#000" opacity="1">2070</text><text text-anchor="middle" transform="translate(344.1167944340656,15)" font-family="sans-serif" font-size="10px" fill="#000" opacity="1">2080</text><text text-anchor="middle" transform="translate(397.0656445274754,15)" font-family="sans-serif" font-size="10px" fill="#000" opacity="1">2090</text><text text-anchor="end" transform="translate(450,15)" font-family="sans-serif" font-size="10px" fill="#000" opacity="1">2100</text></g><g class="mark-rule role-axis-domain" pointer-events="none"><line transform="translate(0,0)" x2="450" y2="0" stroke="#888" stroke-width="1" opacity="1"></line></g><g class="mark-text role-axis-title" pointer-events="none"><text text-anchor="middle" transform="translate(225,30)" font-family="sans-serif" font-size="11px" font-weight="bold" fill="#000" opacity="1">time (year)</text></g></g><path class="foreground" aria-hidden="true" d="" pointer-events="none" display="none"></path></g></g><g class="mark-group role-axis" role="graphics-symbol" aria-roledescription="axis" aria-label="Y-axis titled 'D' for a linear scale with values from 0.00 to 0.07"><g transform="translate(0.5,0.5)"><path class="background" aria-hidden="true" d="M0,0h0v0h0Z" pointer-events="none"></path><g><g class="mark-rule role-axis-tick" pointer-events="none"><line transform="translate(0,410)" x2="-5" y2="0" stroke="#888" stroke-width="1" opacity="1"></line><line transform="translate(0,381)" x2="-5" y2="0" stroke="#888" stroke-width="1" opacity="1"></line><line transform="translate(0,351)" x2="-5" y2="0" stroke="#888" stroke-width="1" opacity="1"></line><line transform="translate(0,322)" x2="-5" y2="0" stroke="#888" stroke-width="1" opacity="1"></line><line transform="translate(0,293)" x2="-5" y2="0" stroke="#888" stroke-width="1" opacity="1"></line><line transform="translate(0,264)" x2="-5" y2="0" stroke="#888" stroke-width="1" opacity="1"></line><line transform="translate(0,234)" x2="-5" y2="0" stroke="#888" stroke-width="1" opacity="1"></line><line transform="translate(0,205)" x2="-5" y2="0" stroke="#888" stroke-width="1" opacity="1"></line><line transform="translate(0,176)" x2="-5" y2="0" stroke="#888" stroke-width="1" opacity="1"></line><line transform="translate(0,146)" x2="-5" y2="0" stroke="#888" stroke-width="1" opacity="1"></line><line transform="translate(0,117)" x2="-5" y2="0" stroke="#888" stroke-width="1" opacity="1"></line><line transform="translate(0,88)" x2="-5" y2="0" stroke="#888" stroke-width="1" opacity="1"></line><line transform="translate(0,59)" x2="-5" y2="0" stroke="#888" stroke-width="1" opacity="1"></line><line transform="translate(0,29)" x2="-5" y2="0" stroke="#888" stroke-width="1" opacity="1"></line><line transform="translate(0,0)" x2="-5" y2="0" stroke="#888" stroke-width="1" opacity="1"></line></g><g class="mark-text role-axis-label" pointer-events="none"><text text-anchor="end" transform="translate(-7,413)" font-family="sans-serif" font-size="10px" fill="#000" opacity="1">0.000</text><text text-anchor="end" transform="translate(-7,383.7142857142857)" font-family="sans-serif" font-size="10px" fill="#000" opacity="1">0.005</text><text text-anchor="end" transform="translate(-7,354.42857142857144)" font-family="sans-serif" font-size="10px" fill="#000" opacity="1">0.010</text><text text-anchor="end" transform="translate(-7,325.14285714285717)" font-family="sans-serif" font-size="10px" fill="#000" opacity="1">0.015</text><text text-anchor="end" transform="translate(-7,295.8571428571429)" font-family="sans-serif" font-size="10px" fill="#000" opacity="1">0.020</text><text text-anchor="end" transform="translate(-7,266.57142857142856)" font-family="sans-serif" font-size="10px" fill="#000" opacity="1">0.025</text><text text-anchor="end" transform="translate(-7,237.2857142857143)" font-family="sans-serif" font-size="10px" fill="#000" opacity="1">0.030</text><text text-anchor="end" transform="translate(-7,208)" font-family="sans-serif" font-size="10px" fill="#000" opacity="1">0.035</text><text text-anchor="end" transform="translate(-7,178.71428571428572)" font-family="sans-serif" font-size="10px" fill="#000" opacity="1">0.040</text><text text-anchor="end" transform="translate(-7,149.42857142857144)" font-family="sans-serif" font-size="10px" fill="#000" opacity="1">0.045</text><text text-anchor="end" transform="translate(-7,120.14285714285714)" font-family="sans-serif" font-size="10px" fill="#000" opacity="1">0.050</text><text text-anchor="end" transform="translate(-7,90.85714285714286)" font-family="sans-serif" font-size="10px" fill="#000" opacity="1">0.055</text><text text-anchor="end" transform="translate(-7,61.57142857142863)" font-family="sans-serif" font-size="10px" fill="#000" opacity="1">0.060</text><text text-anchor="end" transform="translate(-7,32.28571428571432)" font-family="sans-serif" font-size="10px" fill="#000" opacity="1">0.065</text><text text-anchor="end" transform="translate(-7,3)" font-family="sans-serif" font-size="10px" fill="#000" opacity="1">0.070</text></g><g class="mark-rule role-axis-domain" pointer-events="none"><line transform="translate(0,410)" x2="0" y2="-410" stroke="#888" stroke-width="1" opacity="1"></line></g><g class="mark-text role-axis-title" pointer-events="none"><text text-anchor="middle" transform="translate(-36.0244140625,205) rotate(-90) translate(0,-2)" font-family="sans-serif" font-size="11px" font-weight="bold" fill="#000" opacity="1">D</text></g></g><path class="foreground" aria-hidden="true" d="" pointer-events="none" display="none"></path></g></g><g class="mark-line role-mark marks" role="graphics-object" aria-roledescription="line mark container"><path aria-label="time (year): 2015; D: 0.00283692893717" role="graphics-symbol" aria-roledescription="line mark" d="M0,393.38370193941125L5.290536623075437,392.41694578672275L10.595567867036012,391.41993366156805L15.886104490111448,390.39264094764746L21.176641113186886,389.33501733831486L26.46717773626232,388.24698387882677L31.772208980222896,387.12843016802736L37.06274560329833,385.9792116967258L42.35328222637377,384.79914729964133L47.643818849449204,383.5880166977893L52.94885009340978,382.3455581083552L58.239386716485214,381.07146589941334L63.529923339560646,379.7653882673615L68.8204599626361,378.4269249154545L74.12549120659666,377.05562471244406L79.4160278296721,375.6509833109387L84.70656445274754,374.2124407057214L89.99710107582297,372.7393787129345L95.30213231978355,371.231118351561L100.59266894285898,369.68691710925697L105.88320556593442,368.10596607507347L111.17374218900986,366.4873869221077L116.47877343297043,364.83022872354405L121.76931005604585,363.13346458593224L127.05984667912129,361.39598808387285L132.35038330219672,359.6166094806142L137.65541454615732,357.7940517192558L142.94595116923276,355.9269461695156L148.2364877923082,354.01382811515265L153.52702441538364,352.05313196733476L158.8320556593442,350.0431861893093L164.12259228241965,347.98220791787816L169.41312890549509,345.86829726727746L174.7036655285705,343.69943130112046L180.0086967725311,341.4734576582154L185.2992333956065,339.18808781812487L190.58977001868195,336.84088999251395L195.8803066417574,334.4292816284655L201.18533788571796,331.95052151018064L206.4758745087934,329.40170144570385L211.76641113186884,326.779737525692L217.05694775494428,324.08136094158164L222.36197899890485,321.30310835106724L227.6525156219803,318.44131177935685L232.9430522450557,315.4920880454093L238.23358886813116,312.4513277032312L243.5386201120917,309.31468348926177L248.82915673516717,306.077558268169L254.11969335824259,302.7350924706417L259.410229981318,299.28215101846683L264.7152612252786,295.71330973396465L270.00579784835406,292.0228412329901L275.29633447142953,288.20470030309895L280.58687109450494,284.25250877124114L285.8919023384655,280.15953986837155L291.1824389615409,275.9187021018929L296.4729755846164,271.52252265067716L301.7635122076918,266.96313030184365L307.06854345165243,262.2322379531743L312.3590800747278,257.32112471055694L317.64961669780325,252.22061761567534L322.94015332087866,246.92107304575742L328.2451845648393,241.41235783438682L333.5357211879147,235.6838301702498L338.82625781099017,229.724320339312L344.1167944340656,223.5221113853027L349.42182567802615,217.0649197735711L354.71236230110156,210.3398761543855L360.00289892417703,203.33350633364444L365.2934355472525,196.03171257177095L370.598466791213,188.4197553451463L375.8890034142885,180.48223571916634L381.1795400373639,172.20307849736693L386.47007666043936,163.56551632755557L391.77510790439993,154.55207496303325L397.0656445274754,145.1445598951559L402.3561811505508,135.32404459217122L407.6467177736262,125.07086059876674L412.9517490175868,114.3645897706911L418.24228564066226,103.18405893915966L423.53282226373767,91.5073373202356L428.82335888681314,79.31173700483343L434.12839013077365,66.57381688519665L439.4189267538491,53.26939039315722L444.70946337692453,39.37353744407893L450,24.86062099750343" stroke="#4c78a8" stroke-width="2"></path></g><g class="mark-group role-title"><g transform="translate(225,-22)"><path class="background" aria-hidden="true" d="M0,0h0v0h0Z" pointer-events="none"></path><g><g class="mark-text role-title-text" role="graphics-symbol" aria-roledescription="title" aria-label="Title text 'damages : D'" pointer-events="none"><text text-anchor="middle" transform="translate(0,10)" font-family="sans-serif" font-size="13px" font-weight="bold" fill="#000" opacity="1">damages : D</text></g></g><path class="foreground" aria-hidden="true" d="" pointer-events="none" display="none"></path></g></g></g><path class="foreground" aria-hidden="true" d="" display="none"></path></g></g></g></svg>