<svg xmlns="http://www.w3.org/2000/svg" xmlns:xlink="http://www.w3.org/1999/xlink" version="1.1" class="marks" width="521" height="474" viewBox="0 0 521 474" style="background-color: white;"><g fill="none" stroke-miterlimit="10" transform="translate(64,27)"><g class="mark-group role-frame root" role="graphics-object" aria-roledescription="group mark container"><g transform="translate(0,0)"><path class="background" aria-hidden="true" d="M0.5,0.5h450v410h-450Z" fill="transparent" stroke="#ddd"></path><g><g class="mark-group role-axis" aria-hidden="true"><g transform="translate(0.5,410.5)"><path class="background" aria-hidden="true" d="M0,0h0v0h0Z" pointer-events="none"></path><g><g class="mark-rule role-axis-grid" pointer-events="none"><line transform="translate(24,-410)" x2="0" y2="410" stroke="#ddd" stroke-width="1" opacity="1"></line><line transform="translate(71,-410)" x2="0" y2="410" stroke="#ddd" stroke-width="1" opacity="1"></line><line transform="translate(118,-410)" x2="0" y2="410" stroke="#ddd" stroke-width="1" opacity="1"></line><line transform="translate(166,-410)" x2="0" y2="410" stroke="#ddd" stroke-width="1" opacity="1"></line><line transform="translate(213,-410)" x2="0" y2="410" stroke="#ddd" stroke-width="1" opacity="1"></line><line transform="translate(261,-410)" x2="0" y2="410" stroke="#ddd" stroke-width="1" opacity="1"></line><line transform="translate(308,-410)" x2="0" y2="410" stroke="#ddd" stroke-width="1" opacity="1"></line><line transform="translate(355,-410)" x2="0" y2="410" stroke="#ddd" stroke-width="1" opacity="1"></line><line transform="translate(403,-410)" x2="0" y2="410" stroke="#ddd" stroke-width="1" opacity="1"></line><line transform="translate(450,-410)" x2="0" y2="410" stroke="#ddd" stroke-width="1" opacity="1"></line></g></g><path class="foreground" aria-hidden="true" d="" pointer-events="none" display="none"></path></g></g><g class="mark-group role-axis" aria-hidden="true"><g transform="translate(0.5,0.5)"><path class="background" aria-hidden="true" d="M0,0h0v0h0Z" pointer-events="none"></path><g><g class="mark-rule role-axis-grid" pointer-events="none"><line transform="translate(0,410)" x2="450" y2="0" stroke="#ddd" stroke-width="1" opacity="1"></line><line transform="translate(0,369)" x2="450" y2="0" stroke="#ddd" stroke-width="1" opacity="1"></line><line transform="translate(0,328)" x2="450" y2="0" stroke="#ddd" stroke-width="1" opacity="1"></line><line transform="translate(0,287)" x2="450" y2="0" stroke="#ddd" stroke-width="1" opacity="1"></line><line transform="translate(0,246)" x2="450" y2="0" stroke="#ddd" stroke-width="1" opacity="1"></line><line transform="translate(0,205)" x2="450" y2="0" stroke="#ddd" stroke-width="1" opacity="1"></line><line transform="translate(0,164)" x2="450" y2="0" stroke="#ddd" stroke-width="1" opacity="1"></line><line transform="translate(0,123)" x2="450" y2="0" stroke="#ddd" stroke-width="1" opacity="1"></line><line transform="translate(0,82)" x2="450" y2="0" stroke="#ddd" stroke-width="1" opacity="1"></line><line transform="translate(0,41)" x2="450" y2="0" stroke="#ddd" stroke-width="1" opacity="1"></line><line transform="translate(0,0)" x2="450" y2="0" stroke="#ddd" stroke-width="1" opacity="1"></line></g></g><path class="foreground" aria-hidden="true" d="" pointer-events="none" display="none"></path></g></g><g class="mark-group role-axis" role="graphics-symbol" aria-roledescription="axis" aria-label="X-axis titled 'time (year)' for a utc scale with values from 2015 to 2110"><g transform="translate(0.5,410.5)"><path class="background" aria-hidden="true" d="M0,0h0v0h0Z" pointer-events="none"></path><g><g class="mark-rule role-axis-tick" pointer-events="none"><line transform="translate(24,0)" x2="0" y2="5" stroke="#888" stroke-width="1" opacity="1"></line><line transform="translate(71,0)" x2="0" y2="5" stroke="#888" stroke-width="1" opacity="1"></line><line transform="translate(118,0)" x2="0" y2="5" stroke="#888" stroke-width="1" opacity="1"></line><line transform="translate(166,0)" x2="0" y2="5" stroke="#888" stroke-width="1" opacity="1"></line><line transform="translate(213,0)" x2="0" y2="5" stroke="#888" stroke-width="1" opacity="1"></line><line transform="translate(261,0)" x2="0" y2="5" stroke="#888" stroke-width="1" opacity="1"></line><line transform="translate(308,0)" x2="0" y2="5" stroke="#888" stroke-width="1" opacity="1"></line><line transform="translate(355,0)" x2="0" y2="5" stroke="#888" stroke-width="1" opacity="1"></line><line transform="translate(403,0)" x2="0" y2="5" stroke="#888" stroke-width="1" opacity="1"></line><line transform="translate(450,0)" x2="0" y2="5" stroke="#888" stroke-width="1" opacity="1"></line></g><g class="mark-text role-axis-label" pointer-events="none"><text text-anchor="middle" transform="translate(23.68148020058793,15)" font-family="sans-serif" font-size="10px" fill="#000" opacity="1">2020</text><text text-anchor="middle" transform="translate(71.05740964897113,15)" font-family="sans-serif" font-size="10px" fill="#000" opacity="1">2030</text><text text-anchor="middle" transform="translate(118.42037005014699,15)" font-family="sans-serif" font-size="10px" fill="#000" opacity="1">2040</text><text text-anchor="middle" transform="translate(165.79629949853017,15)" font-family="sans-serif" font-size="10px" fill="#000" opacity="1">2050</text><text text-anchor="middle" transform="translate(213.15925989970606,15)" font-family="sans-serif" font-size="10px" fill="#000" opacity="1">2060</text><text text-anchor="middle" transform="translate(260.53518934808926,15)" font-family="sans-serif" font-size="10px" fill="#000" opacity="1">2070</text><text text-anchor="middle" transform="translate(307.8981497492651,15)" font-family="sans-serif" font-size="10px" fill="#000" opacity="1">2080</text><text text-anchor="middle" transform="translate(355.2740791976483,15)" font-family="sans-serif" font-size="10px" fill="#000" opacity="1">2090</text><text text-anchor="middle" transform="translate(402.6370395988241,15)" font-family="sans-serif" font-size="10px" fill="#000" opacity="1">2100</text><text text-anchor="end" transform="translate(450,15)" font-family="sans-serif" font-size="10px" fill="#000" opacity="1">2110</text></g><g class="mark-rule role-axis-domain" pointer-events="none"><line transform="translate(0,0)" x2="450" y2="0" stroke="#888" stroke-width="1" opacity="1"></line></g><g class="mark-text role-axis-title" pointer-events="none"><text text-anchor="middle" transform="translate(225,30)" font-family="sans-serif" font-size="11px" font-weight="bold" fill="#000" opacity="1">time (year)</text></g></g><path class="foreground" aria-hidden="true" d="" pointer-events="none" display="none"></path></g></g><g class="mark-group role-axis" role="graphics-symbol" aria-roledescription="axis" aria-label="Y-axis titled 'E' for a linear scale with values from 0 to 100,000"><g transform="translate(0.5,0.5)"><path class="background" aria-hidden="true" d="M0,0h0v0h0Z" pointer-events="none"></path><g><g class="mark-rule role-axis-tick" pointer-events="none"><line transform="translate(0,410)" x2="-5" y2="0" stroke="#888" stroke-width="1" opacity="1"></line><line transform="translate(0,369)" x2="-5" y2="0" stroke="#888" stroke-width="1" opacity="1"></line><line transform="translate(0,328)" x2="-5" y2="0" stroke="#888" stroke-width="1" opacity="1"></line><line transform="translate(0,287)" x2="-5" y2="0" stroke="#888" stroke-width="1" opacity="1"></line><line transform="translate(0,246)" x2="-5" y2="0" stroke="#888" stroke-width="1" opacity="1"></line><line transform="translate(0,205)" x2="-5" y2="0" stroke="#888" stroke-width="1" opacity="1"></line><line transform="translate(0,164)" x2="-5" y2="0" stroke="#888" stroke-width="1" opacity="1"></line><line transform="translate(0,123)" x2="-5" y2="0" stroke="#888" stroke-width="1" opacity="1"></line><line transform="translate(0,82)" x2="-5" y2="0" stroke="#888" stroke-width="1" opacity="1"></line><line transform="translate(0,41)" x2="-5" y2="0" stroke="#888" stroke-width="1" opacity="1"></line><line transform="translate(0,0)" x2="-5" y2="0" stroke="#888" stroke-width="1" opacity="1"></line></g><g class="mark-text role-axis-label" pointer-events="none"><text text-anchor="end" transform="translate(-7,413)" font-family="sans-serif" font-size="10px" fill="#000" opacity="1">0</text><text text-anchor="end" transform="translate(-7,372)" font-family="sans-serif" font-size="10px" fill="#000" opacity="1">10,000</text><text text-anchor="end" transform="translate(-7,331)" font-family="sans-serif" font-size="10px" fill="#000" opacity="1">20,000</text><text text-anchor="end" transform="translate(-7,290)" font-family="sans-serif" font-size="10px" fill="#000" opacity="1">30,000</text><text text-anchor="end" transform="translate(-7,249)" font-family="sans-serif" font-size="10px" fill="#000" opacity="1">40,000</text><text text-anchor="end" transform="translate(-7,208)" font-family="sans-serif" font-size="10px" fill="#000" opacity="1">50,000</text><text text-anchor="end" transform="translate(-7,167)" font-family="sans-serif" font-size="10px" fill="#000" opacity="1">60,000</text><text text-anchor="end" transform="translate(-7,126.00000000000001)" font-family="sans-serif" font-size="10px" fill="#000" opacity="1">70,000</text><text text-anchor="end" transform="translate(-7,84.99999999999999)" font-family="sans-serif" font-size="10px" fill="#000" opacity="1">80,000</text><text text-anchor="end" transform="translate(-7,43.99999999999999)" font-family="sans-serif" font-size="10px" fill="#000" opacity="1">90,000</text><text text-anchor="end" transform="translate(-7,3)" font-family="sans-serif" font-size="10px" fill="#000" opacity="1">100,000</text></g><g class="mark-rule role-axis-domain" pointer-events="none"><line transform="translate(0,410)" x2="0" y2="-410" stroke="#888" stroke-width="1" opacity="1"></line></g><g class="mark-text role-axis-title" pointer-events="none"><text text-anchor="middle" transform="translate(-47.1474609375,205) rotate(-90) translate(0,-2)" font-family="sans-serif" font-size="11px" font-weight="bold" fill="#000" opacity="1">E</text></g></g><path class="foreground" aria-hidden="true" d="" pointer-events="none" display="none"></path></g></g><g class="mark-line role-mark marks" role="graphics-object" aria-roledescription="line mark container"><path aria-label="time (year): 2015; E: 4211.09059106" role="graphics-symbol" aria-roledescription="line mark" d="M0,392.7345285766442L23.68148020058793,348.1741852107028L47.3759294483832,311.91839572309675L71.05740964897113,285.9510724331958L94.73888984955906,265.77963969144815L118.42037005014699,248.89866995647387L142.11481929794226,233.91459516935444L165.79629949853017,219.98581260863628L189.47777969911812,206.5693970514842L213.15925989970606,193.29722370094768L236.8537091475013,179.90940372014262L260.53518934808926,166.2156388818011L284.21666954867715,152.07141868572933L307.8981497492651,137.36270177735162L331.59259899706035,121.99573524258518L355.2740791976483,105.89012622754764L378.95555939823623,88.97404116494421L402.6370395988241,71.1808301133832L426.3185197994121,52.44662140992945L450,32.70858412479253" stroke="#4c78a8" stroke-width="2"></path></g><g class="mark-group role-title"><g transform="translate(225,-22)"><path class="background" aria-hidden="true" d="M0,0h0v0h0Z" pointer-events="none"></path><g><g class="mark-text role-title-text" role="graphics-symbol" aria-roledescription="title" aria-label="Title text 'emissions : E'" pointer-events="none"><text text-anchor="middle" transform="translate(0,10)" font-family="sans-serif" font-size="13px" font-weight="bold" fill="#000" opacity="1">emissions : E</text></g></g><path class="foreground" aria-hidden="true" d="" pointer-events="none" display="none"></path></g></g></g><path class="foreground" aria-hidden="true" d="" display="none"></path></g></g></g></svg>