<svg xmlns="http://www.w3.org/2000/svg" xmlns:xlink="http://www.w3.org/1999/xlink" version="1.1" class="marks" width="501" height="474" viewBox="0 0 501 474" style="background-color: white;"><g fill="none" stroke-miterlimit="10" transform="translate(44,27)"><g class="mark-group role-frame root" role="graphics-object" aria-roledescription="group mark container"><g transform="translate(0,0)"><path class="background" aria-hidden="true" d="M0.5,0.5h450v410h-450Z" fill="transparent" stroke="#ddd"></path><g><g class="mark-group role-axis" aria-hidden="true"><g transform="translate(0.5,410.5)"><path class="background" aria-hidden="true" d="M0,0h0v0h0Z" pointer-events="none"></path><g><g class="mark-rule role-axis-grid" pointer-events="none"><line transform="translate(26,-410)" x2="0" y2="410" stroke="#ddd" stroke-width="1" opacity="1"></line><line transform="translate(79,-410)" x2="0" y2="410" stroke="#ddd" stroke-width="1" opacity="1"></line><line transform="translate(132,-410)" x2="0" y2="410" stroke="#ddd" stroke-width="1" opacity="1"></line><line transform="translate(185,-410)" x2="0" y2="410" stroke="#ddd" stroke-width="1" opacity="1"></line><line transform="translate(238,-410)" x2="0" y2="410" stroke="#ddd" stroke-width="1" opacity="1"></line><line transform="translate(291,-410)" x2="0" y2="410" stroke="#ddd" stroke-width="1" opacity="1"></line><line transform="translate(344,-410)" x2="0" y2="410" stroke="#ddd" stroke-width="1" opacity="1"></line><line transform="translate(397,-410)" x2="0" y2="410" stroke="#ddd" stroke-width="1" opacity="1"></line><line transform="translate(450,-410)" x2="0" y2="410" stroke="#ddd" stroke-width="1" opacity="1"></line></g></g><path class="foreground" aria-hidden="true" d="" pointer-events="none" display="none"></path></g></g><g class="mark-group role-axis" aria-hidden="true"><g transform="translate(0.5,0.5)"><path class="background" aria-hidden="true" d="M0,0h0v0h0Z" pointer-events="none"></path><g><g class="mark-rule role-axis-grid" pointer-events="none"><line transform="translate(0,410)" x2="450" y2="0" stroke="#ddd" stroke-width="1" opacity="1"></line><line transform="translate(0,376)" x2="450" y2="0" stroke="#ddd" stroke-width="1" opacity="1"></line><line transform="translate(0,342)" x2="450" y2="0" stroke="#ddd" stroke-width="1" opacity="1"></line><line transform="translate(0,308)" x2="450" y2="0" stroke="#ddd" stroke-width="1" opacity="1"></line><line transform="translate(0,273)" x2="450" y2="0" stroke="#ddd" stroke-width="1" opacity="1"></line><line transform="translate(0,239)" x2="450" y2="0" stroke="#ddd" stroke-width="1" opacity="1"></line><line transform="translate(0,205)" x2="450" y2="0" stroke="#ddd" stroke-width="1" opacity="1"></line><line transform="translate(0,171)" x2="450" y2="0" stroke="#ddd" stroke-width="1" opacity="1"></line><line transform="translate(0,137)" x2="450" y2="0" stroke="#ddd" stroke-width="1" opacity="1"></line><line transform="translate(0,103)" x2="450" y2="0" stroke="#ddd" stroke-width="1" opacity="1"></line><line transform="translate(0,68)" x2="450" y2="0" stroke="#ddd" stroke-width="1" opacity="1"></line><line transform="translate(0,34)" x2="450" y2="0" stroke="#ddd" stroke-width="1" opacity="1"></line><line transform="translate(0,0)" x2="450" y2="0" stroke="#ddd" stroke-width="1" opacity="1"></line></g></g><path class="foreground" aria-hidden="true" d="" pointer-events="none" display="none"></path></g></g><g class="mark-group role-axis" role="graphics-symbol" aria-roledescription="axis" aria-label="X-axis titled 'time (year)' for a utc scale with values from 2015 to 2100"><g transform="translate(0.5,410.5)"><path class="background" aria-hidden="true" d="M0,0h0v0h0Z" pointer-events="none"></path><g><g class="mark-rule role-axis-tick" pointer-events="none"><line transform="translate(26,0)" x2="0" y2="5" stroke="#888" stroke-width="1" opacity="1"></line><line transform="translate(79,0)" x2="0" y2="5" stroke="#888" stroke-width="1" opacity="1"></line><line transform="translate(132,0)" x2="0" y2="5" stroke="#888" stroke-width="1" opacity="1"></line><line transform="translate(185,0)" x2="0" y2="5" stroke="#888" stroke-width="1" opacity="1"></line><line transform="translate(238,0)" x2="0" y2="5" stroke="#888" stroke-width="1" opacity="1"></line><line transform="translate(291,0)" x2="0" y2="5" stroke="#888" stroke-width="1" opacity="1"></line><line transform="translate(344,0)" x2="0" y2="5" stroke="#888" stroke-width="1" opacity="1"></line><line transform="translate(397,0)" x2="0" y2="5" stroke="#888" stroke-width="1" opacity="1"></line><line transform="translate(450,0)" x2="0" y2="5" stroke="#888" stroke-width="1" opacity="1"></line></g><g class="mark-text role-axis-label" pointer-events="none"><text text-anchor="middle" transform="translate(26.46717773626232,15)" font-family="sans-serif" font-size="10px" fill="#000" opacity="1">2020</text><text text-anchor="middle" transform="translate(79.4160278296721,15)" font-family="sans-serif" font-size="10px" fill="#000" opacity="1">2030</text><text text-anchor="middle" transform="translate(132.35038330219672,15)" font-family="sans-serif" font-size="10px" fill="#000" opacity="1">2040</text><text text-anchor="middle" transform="translate(185.2992333956065,15)" font-family="sans-serif" font-size="10px" fill="#000" opacity="1">2050</text><text text-anchor="middle" transform="translate(238.23358886813116,15)" font-family="sans-serif" font-size="10px" fill="#000" opacity="1">2060</text><text text-anchor="middle" transform="translate(291.1824389615409,15)" font-family="sans-serif" font-size="10px" fill="#000" opacity="1">2070</text><text text-anchor="middle" transform="translate(344.1167944340656,15)" font-family="sans-serif" font-size="10px" fill="#000" opacity="1">2080</text><text text-anchor="middle" transform="translate(397.0656445274754,15)" font-family="sans-serif" font-size="10px" fill="#000" opacity="1">2090</text><text text-anchor="end" transform="translate(450,15)" font-family="sans-serif" font-size="10px" fill="#000" opacity="1">2100</text></g><g class="mark-rule role-axis-domain" pointer-events="none"><line transform="translate(0,0)" x2="450" y2="0" stroke="#888" stroke-width="1" opacity="1"></line></g><g class="mark-text role-axis-title" pointer-events="none"><text text-anchor="middle" transform="translate(225,30)" font-family="sans-serif" font-size="11px" font-weight="bold" fill="#000" opacity="1">time (year)</text></g></g><path class="foreground" aria-hidden="true" d="" pointer-events="none" display="none"></path></g></g><g class="mark-group role-axis" role="graphics-symbol" aria-roledescription="axis" aria-label="Y-axis titled 'Y' for a linear scale with values from 0 to 240"><g transform="translate(0.5,0.5)"><path class="background" aria-hidden="true" d="M0,0h0v0h0Z" pointer-events="none"></path><g><g class="mark-rule role-axis-tick" pointer-events="none"><line transform="translate(0,410)" x2="-5" y2="0" stroke="#888" stroke-width="1" opacity="1"></line><line transform="translate(0,376)" x2="-5" y2="0" stroke="#888" stroke-width="1" opacity="1"></line><line transform="translate(0,342)" x2="-5" y2="0" stroke="#888" stroke-width="1" opacity="1"></line><line transform="translate(0,308)" x2="-5" y2="0" stroke="#888" stroke-width="1" opacity="1"></line><line transform="translate(0,273)" x2="-5" y2="0" stroke="#888" stroke-width="1" opacity="1"></line><line transform="translate(0,239)" x2="-5" y2="0" stroke="#888" stroke-width="1" opacity="1"></line><line transform="translate(0,205)" x2="-5" y2="0" stroke="#888" stroke-width="1" opacity="1"></line><line transform="translate(0,171)" x2="-5" y2="0" stroke="#888" stroke-width="1" opacity="1"></line><line transform="translate(0,137)" x2="-5" y2="0" stroke="#888" stroke-width="1" opacity="1"></line><line transform="translate(0,103)" x2="-5" y2="0" stroke="#888" stroke-width="1" opacity="1"></line><line transform="translate(0,68)" x2="-5" y2="0" stroke="#888" stroke-width="1" opacity="1"></line><line transform="translate(0,34)" x2="-5" y2="0" stroke="#888" stroke-width="1" opacity="1"></line><line transform="translate(0,0)" x2="-5" y2="0" stroke="#888" stroke-width="1" opacity="1"></line></g><g class="mark-text role-axis-label" pointer-events="none"><text text-anchor="end" transform="translate(-7,413)" font-family="sans-serif" font-size="10px" fill="#000" opacity="1">0</text><text text-anchor="end" transform="translate(-7,378.8333333333333)" font-family="sans-serif" font-size="10px" fill="#000" opacity="1">20</text><text text-anchor="end" transform="translate(-7,344.6666666666667)" font-family="sans-serif" font-size="10px" fill="#000" opacity="1">40</text><text text-anchor="end" transform="translate(-7,310.5)" font-family="sans-serif" font-size="10px" fill="#000" opacity="1">60</text><text text-anchor="end" transform="translate(-7,276.33333333333337)" font-family="sans-serif" font-size="10px" fill="#000" opacity="1">80</text><text text-anchor="end" transform="translate(-7,242.16666666666663)" font-family="sans-serif" font-size="10px" fill="#000" opacity="1">100</text><text text-anchor="end" transform="translate(-7,208)" font-family="sans-serif" font-size="10px" fill="#000" opacity="1">120</text><text text-anchor="end" transform="translate(-7,173.83333333333331)" font-family="sans-serif" font-size="10px" fill="#000" opacity="1">140</text><text text-anchor="end" transform="translate(-7,139.66666666666669)" font-family="sans-serif" font-size="10px" fill="#000" opacity="1">160</text><text text-anchor="end" transform="translate(-7,105.5)" font-family="sans-serif" font-size="10px" fill="#000" opacity="1">180</text><text text-anchor="end" transform="translate(-7,71.33333333333331)" font-family="sans-serif" font-size="10px" fill="#000" opacity="1">200</text><text text-anchor="end" transform="translate(-7,37.16666666666668)" font-family="sans-serif" font-size="10px" fill="#000" opacity="1">220</text><text text-anchor="end" transform="translate(-7,3)" font-family="sans-serif" font-size="10px" fill="#000" opacity="1">240</text></g><g class="mark-rule role-axis-domain" pointer-events="none"><line transform="translate(0,410)" x2="0" y2="-410" stroke="#888" stroke-width="1" opacity="1"></line></g><g class="mark-text role-axis-title" pointer-events="none"><text text-anchor="middle" transform="translate(-27.6845703125,205) rotate(-90) translate(0,-2)" font-family="sans-serif" font-size="11px" font-weight="bold" fill="#000" opacity="1">Y</text></g></g><path class="foreground" aria-hidden="true" d="" pointer-events="none" display="none"></path></g></g><g class="mark-line role-mark marks" role="graphics-object" aria-roledescription="line mark container"><path aria-label="time (year): 2015; Y: 57.0951443082" role="graphics-symbol" aria-roledescription="line mark" d="M0,312.4624618067597L5.290536623075437,311.3804469451405L10.595567867036012,310.24433978967863L15.886104490111448,309.054961081601L21.176641113186886,307.8130922516352L26.46717773626232,306.51947213550204L31.772208980222896,305.1747942528706L37.06274560329833,303.77970461592173L42.35328222637377,302.3348000289626L47.643818849449204,300.8406268375243L52.94885009340978,299.29768008382337L58.239386716485214,297.7064030251438L63.529923339560646,296.0671869723736L68.8204599626361,294.38037140738953L74.12549120659666,292.6462443400408L79.4160278296721,290.8650428679539L84.70656445274754,289.0369539051337L89.99710107582297,287.16211504823303L95.30213231978355,285.24061555231617L100.59266894285898,283.27249739086415L105.88320556593442,281.2577563776045L111.17374218900986,279.19634333044786L116.47877343297043,277.0881652603508L121.76931005604585,274.93308657027785L127.05984667912129,272.73093025158903L132.35038330219672,270.4814790671447L137.65541454615732,268.18447671217893L142.94595116923276,265.83962894557266L148.2364877923082,263.44660468554673L153.52702441538364,261.00503706503093L158.8320556593442,258.5145244430288L164.12259228241965,255.9746313692301L169.41312890549509,253.38488949992086L174.7036655285705,250.74479846392245L180.0086967725311,248.05382667787046L185.2992333956065,245.31141211062297L190.58977001868195,242.51696299699955L195.8803066417574,239.66985850137394L201.18533788571796,236.7694493319171L206.4758745087934,233.81505830649962L211.76641113186884,230.8059808714273L217.05694775494428,227.74148557431337L222.36197899890485,224.6208144924793L227.6525156219803,221.44318361834223L232.9430522450557,218.20778320328262L238.23358886813116,214.91377806150672L243.5386201120917,211.56030783541607L248.82915673516717,208.1464872239849L254.11969335824259,204.6714061756236L259.410229981318,201.13413004696787L264.7152612252786,197.53369972899924L270.00579784835406,193.86913174185054L275.29633447142953,190.13941829960285L280.58687109450494,186.34352734632805L285.8919023384655,182.48040256457213L291.1824389615409,178.54896335742225L296.4729755846164,174.54810480524202L301.7635122076918,170.4766975981022L307.06854345165243,166.33358794487904L312.3590800747278,162.11759745993783L317.64961669780325,157.82752302826307L322.94015332087866,153.46213664984668L328.2451845648393,149.02018526409282L333.5357211879147,144.50039055495012L338.82625781099017,139.9014487374331L344.1167944340656,135.22203032615081L349.42182567802615,130.46077988641557L354.71236230110156,125.61631576846264L360.00289892417703,120.68722982527393L365.2934355472525,115.67208711445701L370.598466791213,110.56942558459852L375.8890034142885,105.37775574647192L381.1795400373639,100.09556032945082L386.47007666043936,94.72129392344549L391.77510790439993,89.25338260664927L397.0656445274754,83.69022355935746L402.3561811505508,78.03018466408905L407.6467177736262,72.2716040922209L412.9517490175868,66.4127898773167L418.24228564066226,60.45201947531214L423.53282226373767,54.38753931169408L428.82335888681314,48.21756431579199L434.12839013077365,41.94027744228053L439.4189267538491,35.55382917997254L444.70946337692453,29.05633704796453L450,22.44588507917959" stroke="#4c78a8" stroke-width="2"></path></g><g class="mark-group role-title"><g transform="translate(225,-22)"><path class="background" aria-hidden="true" d="M0,0h0v0h0Z" pointer-events="none"></path><g><g class="mark-text role-title-text" role="graphics-symbol" aria-roledescription="title" aria-label="Title text 'grosseconomy : Y'" pointer-events="none"><text text-anchor="middle" transform="translate(0,10)" font-family="sans-serif" font-size="13px" font-weight="bold" fill="#000" opacity="1">grosseconomy : Y</text></g></g><path class="foreground" aria-hidden="true" d="" pointer-events="none" display="none"></path></g></g></g><path class="foreground" aria-hidden="true" d="" display="none"></path></g></g></g></svg>