<svg xmlns="http://www.w3.org/2000/svg" xmlns:xlink="http://www.w3.org/1999/xlink" version="1.1" class="marks" width="498" height="474" viewBox="0 0 498 474" style="background-color: white;"><g fill="none" stroke-miterlimit="10" transform="translate(41,27)"><g class="mark-group role-frame root" role="graphics-object" aria-roledescription="group mark container"><g transform="translate(0,0)"><path class="background" aria-hidden="true" d="M0.5,0.5h450v410h-450Z" fill="transparent" stroke="#ddd"></path><g><g class="mark-group role-axis" aria-hidden="true"><g transform="translate(0.5,410.5)"><path class="background" aria-hidden="true" d="M0,0h0v0h0Z" pointer-events="none"></path><g><g class="mark-rule role-axis-grid" pointer-events="none"><line transform="translate(26,-410)" x2="0" y2="410" stroke="#ddd" stroke-width="1" opacity="1"></line><line transform="translate(79,-410)" x2="0" y2="410" stroke="#ddd" stroke-width="1" opacity="1"></line><line transform="translate(132,-410)" x2="0" y2="410" stroke="#ddd" stroke-width="1" opacity="1"></line><line transform="translate(185,-410)" x2="0" y2="410" stroke="#ddd" stroke-width="1" opacity="1"></line><line transform="translate(238,-410)" x2="0" y2="410" stroke="#ddd" stroke-width="1" opacity="1"></line><line transform="translate(291,-410)" x2="0" y2="410" stroke="#ddd" stroke-width="1" opacity="1"></line><line transform="translate(344,-410)" x2="0" y2="410" stroke="#ddd" stroke-width="1" opacity="1"></line><line transform="translate(397,-410)" x2="0" y2="410" stroke="#ddd" stroke-width="1" opacity="1"></line><line transform="translate(450,-410)" x2="0" y2="410" stroke="#ddd" stroke-width="1" opacity="1"></line></g></g><path class="foreground" aria-hidden="true" d="" pointer-events="none" display="none"></path></g></g><g class="mark-group role-axis" aria-hidden="true"><g transform="translate(0.5,0.5)"><path class="background" aria-hidden="true" d="M0,0h0v0h0Z" pointer-events="none"></path><g><g class="mark-rule role-axis-grid" pointer-events="none"><line transform="translate(0,410)" x2="450" y2="0" stroke="#ddd" stroke-width="1" opacity="1"></line><line transform="translate(0,359)" x2="450" y2="0" stroke="#ddd" stroke-width="1" opacity="1"></line><line transform="translate(0,308)" x2="450" y2="0" stroke="#ddd" stroke-width="1" opacity="1"></line><line transform="translate(0,256)" x2="450" y2="0" stroke="#ddd" stroke-width="1" opacity="1"></line><line transform="translate(0,205)" x2="450" y2="0" stroke="#ddd" stroke-width="1" opacity="1"></line><line transform="translate(0,154)" x2="450" y2="0" stroke="#ddd" stroke-width="1" opacity="1"></line><line transform="translate(0,103)" x2="450" y2="0" stroke="#ddd" stroke-width="1" opacity="1"></line><line transform="translate(0,51)" x2="450" y2="0" stroke="#ddd" stroke-width="1" opacity="1"></line><line transform="translate(0,0)" x2="450" y2="0" stroke="#ddd" stroke-width="1" opacity="1"></line></g></g><path class="foreground" aria-hidden="true" d="" pointer-events="none" display="none"></path></g></g><g class="mark-group role-axis" role="graphics-symbol" aria-roledescription="axis" aria-label="X-axis titled 'time (year)' for a utc scale with values from 2015 to 2100"><g transform="translate(0.5,410.5)"><path class="background" aria-hidden="true" d="M0,0h0v0h0Z" pointer-events="none"></path><g><g class="mark-rule role-axis-tick" pointer-events="none"><line transform="translate(26,0)" x2="0" y2="5" stroke="#888" stroke-width="1" opacity="1"></line><line transform="translate(79,0)" x2="0" y2="5" stroke="#888" stroke-width="1" opacity="1"></line><line transform="translate(132,0)" x2="0" y2="5" stroke="#888" stroke-width="1" opacity="1"></line><line transform="translate(185,0)" x2="0" y2="5" stroke="#888" stroke-width="1" opacity="1"></line><line transform="translate(238,0)" x2="0" y2="5" stroke="#888" stroke-width="1" opacity="1"></line><line transform="translate(291,0)" x2="0" y2="5" stroke="#888" stroke-width="1" opacity="1"></line><line transform="translate(344,0)" x2="0" y2="5" stroke="#888" stroke-width="1" opacity="1"></line><line transform="translate(397,0)" x2="0" y2="5" stroke="#888" stroke-width="1" opacity="1"></line><line transform="translate(450,0)" x2="0" y2="5" stroke="#888" stroke-width="1" opacity="1"></line></g><g class="mark-text role-axis-label" pointer-events="none"><text text-anchor="middle" transform="translate(26.46717773626232,15)" font-family="sans-serif" font-size="10px" fill="#000" opacity="1">2020</text><text text-anchor="middle" transform="translate(79.4160278296721,15)" font-family="sans-serif" font-size="10px" fill="#000" opacity="1">2030</text><text text-anchor="middle" transform="translate(132.35038330219672,15)" font-family="sans-serif" font-size="10px" fill="#000" opacity="1">2040</text><text text-anchor="middle" transform="translate(185.2992333956065,15)" font-family="sans-serif" font-size="10px" fill="#000" opacity="1">2050</text><text text-anchor="middle" transform="translate(238.23358886813116,15)" font-family="sans-serif" font-size="10px" fill="#000" opacity="1">2060</text><text text-anchor="middle" transform="translate(291.1824389615409,15)" font-family="sans-serif" font-size="10px" fill="#000" opacity="1">2070</text><text text-anchor="middle" transform="translate(344.1167944340656,15)" font-family="sans-serif" font-size="10px" fill="#000" opacity="1">2080</text><text text-anchor="middle" transform="translate(397.0656445274754,15)" font-family="sans-serif" font-size="10px" fill="#000" opacity="1">2090</text><text text-anchor="end" transform="translate(450,15)" font-family="sans-serif" font-size="10px" fill="#000" opacity="1">2100</text></g><g class="mark-rule role-axis-domain" pointer-events="none"><line transform="translate(0,0)" x2="450" y2="0" stroke="#888" stroke-width="1" opacity="1"></line></g><g class="mark-text role-axis-title" pointer-events="none"><text text-anchor="middle" transform="translate(225,30)" font-family="sans-serif" font-size="11px" font-weight="bold" fill="#000" opacity="1">time (year)</text></g></g><path class="foreground" aria-hidden="true" d="" pointer-events="none" display="none"></path></g></g><g class="mark-group role-axis" role="graphics-symbol" aria-roledescription="axis" aria-label="Y-axis titled 'T_AT' for a linear scale with values from 0 to 4"><g transform="translate(0.5,0.5)"><path class="background" aria-hidden="true" d="M0,0h0v0h0Z" pointer-events="none"></path><g><g class="mark-rule role-axis-tick" pointer-events="none"><line transform="translate(0,410)" x2="-5" y2="0" stroke="#888" stroke-width="1" opacity="1"></line><line transform="translate(0,359)" x2="-5" y2="0" stroke="#888" stroke-width="1" opacity="1"></line><line transform="translate(0,308)" x2="-5" y2="0" stroke="#888" stroke-width="1" opacity="1"></line><line transform="translate(0,256)" x2="-5" y2="0" stroke="#888" stroke-width="1" opacity="1"></line><line transform="translate(0,205)" x2="-5" y2="0" stroke="#888" stroke-width="1" opacity="1"></line><line transform="translate(0,154)" x2="-5" y2="0" stroke="#888" stroke-width="1" opacity="1"></line><line transform="translate(0,103)" x2="-5" y2="0" stroke="#888" stroke-width="1" opacity="1"></line><line transform="translate(0,51)" x2="-5" y2="0" stroke="#888" stroke-width="1" opacity="1"></line><line transform="translate(0,0)" x2="-5" y2="0" stroke="#888" stroke-width="1" opacity="1"></line></g><g class="mark-text role-axis-label" pointer-events="none"><text text-anchor="end" transform="translate(-7,413)" font-family="sans-serif" font-size="10px" fill="#000" opacity="1">0.0</text><text text-anchor="end" transform="translate(-7,361.75)" font-family="sans-serif" font-size="10px" fill="#000" opacity="1">0.5</text><text text-anchor="end" transform="translate(-7,310.5)" font-family="sans-serif" font-size="10px" fill="#000" opacity="1">1.0</text><text text-anchor="end" transform="translate(-7,259.25)" font-family="sans-serif" font-size="10px" fill="#000" opacity="1">1.5</text><text text-anchor="end" transform="translate(-7,208)" font-family="sans-serif" font-size="10px" fill="#000" opacity="1">2.0</text><text text-anchor="end" transform="translate(-7,156.75)" font-family="sans-serif" font-size="10px" fill="#000" opacity="1">2.5</text><text text-anchor="end" transform="translate(-7,105.5)" font-family="sans-serif" font-size="10px" fill="#000" opacity="1">3.0</text><text text-anchor="end" transform="translate(-7,54.25)" font-family="sans-serif" font-size="10px" fill="#000" opacity="1">3.5</text><text text-anchor="end" transform="translate(-7,3)" font-family="sans-serif" font-size="10px" fill="#000" opacity="1">4.0</text></g><g class="mark-rule role-axis-domain" pointer-events="none"><line transform="translate(0,410)" x2="0" y2="-410" stroke="#888" stroke-width="1" opacity="1"></line></g><g class="mark-text role-axis-title" pointer-events="none"><text text-anchor="middle" transform="translate(-24.9013671875,205) rotate(-90) translate(0,-2)" font-family="sans-serif" font-size="11px" font-weight="bold" fill="#000" opacity="1">T_AT</text></g></g><path class="foreground" aria-hidden="true" d="" pointer-events="none" display="none"></path></g></g><g class="mark-line role-mark marks" role="graphics-object" aria-roledescription="line mark container"><path aria-label="time (year): 2015; T_AT: 1" role="graphics-symbol" aria-roledescription="line mark" d="M0,307.5L5.290536623075437,304.5649467194447L10.595567867036012,301.62288454797454L15.886104490111448,298.6746513501867L21.176641113186886,295.72097274687576L26.46717773626232,292.76247141085497L31.772208980222896,289.7996757162833L37.06274560329833,286.8330277801974L42.35328222637377,283.86289093307005L47.643818849449204,280.8895566534194L52.94885009340978,277.913250999769L58.239386716485214,274.934140571591L63.529923339560646,271.9523380292574L68.8204599626361,268.967907201467L74.12549120659666,265.9808678071112L79.4160278296721,262.9911998170856L84.70656445274754,259.9988474801486L89.99710107582297,257.0037230355752L95.30213231978355,254.00571013404618L100.59266894285898,251.00466698696115L105.88320556593442,248.00042926316198L111.17374218900986,244.9928127509012L116.47877343297043,241.9816158017915L121.76931005604585,238.96662157242454L127.05984667912129,235.947600078351L132.35038330219672,232.92431007416505L137.65541454615732,229.89650077254117L142.94595116923276,226.8639134142202L148.2364877923082,223.8262827001389L153.52702441538364,220.7833380961396L158.8320556593442,217.73480501998387L164.12259228241965,214.68040591972118L169.41312890549509,211.6198612518334L174.7036655285705,208.55289036698338L180.0086967725311,205.4792123106404L185.2992333956065,202.39854654533497L190.58977001868195,199.31061360080932L195.8803066417574,196.21513565787362L201.18533788571796,193.1118370713544L206.4758745087934,190.00044483712384L211.76641113186884,186.880689007829L217.05694775494428,183.75230306159534L222.36197899890485,180.61502422765713L227.6525156219803,177.46859377256965L232.9430522450557,174.31275725037855L238.23358886813116,171.14726471986455L243.5386201120917,167.97187093174037L248.82915673516717,164.78633548845497L254.11969335824259,161.59042297905143L259.410229981318,158.38390309133496L264.7152612252786,155.1665507034269L270.00579784835406,151.9381459566177L275.29633447142953,148.69847431127704L280.58687109450494,145.4473265874391L285.8919023384655,142.18449899154837L291.1824389615409,138.90979313073132L296.4729755846164,135.62301601584605L301.7635122076918,132.32398005445836L307.06854345165243,129.01250303479722L312.3590800747278,125.68840810165355L317.64961669780325,122.35152372510412L322.94015332087866,119.00168366286736L328.2451845648393,115.63872691702804L333.5357211879147,112.26249768580249L338.82625781099017,108.8728453109587L344.1167944340656,105.46962422144873L349.42182567802615,102.05269387376238L354.71236230110156,98.62191868946344L360.00289892417703,95.17716799032803L365.2934355472525,91.71831593146493L370.598466791213,88.24524143276196L375.8890034142885,84.75782810896905L381.1795400373639,81.25596419869854L386.47007666043936,77.73954249259549L391.77510790439993,74.2084602609045L397.0656445274754,70.6626191806371L402.3561811505508,67.1019252625213L407.6467177736262,63.52628877789635L412.9517490175868,59.93562418569646L418.24228564066226,56.32985005965255L423.53282226373767,52.70888901582416L428.82335888681314,49.072667640562045L434.12839013077365,45.421116418987836L439.4189267538491,41.7541696640671L444.70946337692453,38.07176544634111L450,34.37384552437358" stroke="#4c78a8" stroke-width="2"></path></g><g class="mark-group role-title"><g transform="translate(225,-22)"><path class="background" aria-hidden="true" d="M0,0h0v0h0Z" pointer-events="none"></path><g><g class="mark-text role-title-text" role="graphics-symbol" aria-roledescription="title" aria-label="Title text 'climate : T_AT'" pointer-events="none"><text text-anchor="middle" transform="translate(0,10)" font-family="sans-serif" font-size="13px" font-weight="bold" fill="#000" opacity="1">climate : T_AT</text></g></g><path class="foreground" aria-hidden="true" d="" pointer-events="none" display="none"></path></g></g></g><path class="foreground" aria-hidden="true" d="" display="none"></path></g></g></g></svg>